  0
SECTION
  2
HEADER
  9
$ACADVER
  1
AC1009
  9
$INSBASE
 10
0.0
 20
0.0
 30
0.0
  9
$EXTMIN
 10
0.0
 20
0.0
 30
0.0
  9
$EXTMAX
 10
0.0
 20
0.0
 30
0.0
  0
ENDSEC
  0
SECTION
  2
TABLES
  0
TABLE
  2
VPORT
 70
0
  0
ENDTAB
  0
TABLE
  2
LTYPE
 70
1
  0
LTYPE
  2
CONTINUOUS
 70
0
  3
Solid line
 72
65
 73
0
 40
0.0
  0
ENDTAB
  0
TABLE
  2
LAYER
 70
1
  0
LAYER
  2
0
 70
64
 62
7
  6
continuous
  0
ENDTAB
  0
TABLE
  2
STYLE
 70
1
  0
STYLE
  2
STANDARD
 70
0
 40
0
 41
1.0
 50
0.0
 71
0
 42
1
 3
ARIAL.TTF
 4

  0
ENDTAB
  0
TABLE
  2
VIEW
 70
0
  0
ENDTAB
  0
ENDSEC
  0
SECTION
  2
BLOCKS
  0
BLOCK
  8
0
  2
POCKET
 70
0
 10
0.0
 20
0.0
 30
0.0
  3
POCKET
  0
POLYLINE
  8
0
 62
0
 70
0
 66
1
 10
0.0
 20
0.0
 30
0.0
  0
VERTEX
  8
0
 10
18.836138011589558
 20
-1.2020074847536124
 30
0.0
  0
VERTEX
  8
0
 10
21.244866650876983
 20
-0.46378390182808404
 30
0.0
  0
SEQEND
  8
0
  0
ARC
  8
0
 62
0
 10
18.838001731118812
 20
-1.6770038284758686
 30
0.0
 40
0.47499999999999504
 50
90.22480744675508
 51
174.95579301950227
  0
ARC
  8
0
 62
0
 10
-3.5797560061112677e-05
 20
0.0016405893996922355
 30
0.0
 40
21.25000000001508
 50
-1.2550113674596637
 51
1.2477792509989374
  0
ARC
  8
0
 62
0
 10
3.906919232576911e-11
 20
-3.976485807299923e-12
 30
0.0
 40
18.43749999996073
 50
-6.161695942292057
 51
-5.088304057707106
  0
POLYLINE
  8
0
 62
0
 70
0
 66
1
 10
0.0
 20
0.0
 30
0.0
  0
VERTEX
  8
0
 10
21.24492522948859
 20
0.4643834551738095
 30
0.0
  0
VERTEX
  8
0
 10
18.83616538321672
 20
1.2020061889784002
 30
0.0
  0
SEQEND
  8
0
  0
ARC
  8
0
 62
0
 10
18.80320189791742
 20
-2.0303323409151663
 30
0.0
 40
0.47500000000000253
 50
173.79406293312928
 51
-101.471518447498
  0
ARC
  8
0
 62
0
 10
18.83800183611639
 20
1.6770026389027644
 30
0.0
 40
0.47500000000000364
 50
-174.95593706687066
 51
-90.22151844749804
  0
POLYLINE
  8
0
 62
0
 70
0
 66
1
 10
0.0
 20
0.0
 30
0.0
  0
VERTEX
  8
0
 10
20.92730666615845
 20
-3.6892188469322407
 30
0.0
  0
VERTEX
  8
0
 10
18.708733521573006
 20
-2.495843593057208
 30
0.0
  0
SEQEND
  8
0
  0
ARC
  8
0
 62
0
 10
9.013767510168691e-11
 20
8.80662209823413e-12
 30
0.0
 40
18.437499999909434
 50
5.088304057706245
 51
6.161695942294191
  0
ARC
  8
0
 62
0
 10
0.0002849534058686487
 20
0.001616049689639354
 30
0.0
 40
21.25000000000329
 50
-12.505011367460567
 51
-10.002220749000184
  0
ARC
  8
0
 62
0
 10
18.80320202701155
 20
2.030331153715358
 30
0.0
 40
0.47500000000000314
 50
101.47480744675595
 51
-173.7942069804986
  0
POLYLINE
  8
0
 62
0
 70
0
 66
1
 10
0.0
 20
0.0
 30
0.0
  0
VERTEX
  8
0
 10
18.23970687414443
 20
-4.853659478202099
 30
0.0
  0
VERTEX
  8
0
 10
20.74617274455608
 20
-4.599540300310266
 30
0.0
  0
SEQEND
  8
0
  0
POLYLINE
  8
0
 62
0
 70
0
 66
1
 10
0.0
 20
0.0
 30
0.0
  0
VERTEX
  8
0
 10
18.70870692867719
 20
2.4958369822403963
 30
0.0
  0
VERTEX
  8
0
 10
20.92713224606316
 20
3.6897954519083327
 30
0.0
  0
SEQEND
  8
0
  0
ARC
  8
0
 62
0
 10
18.148867593172266
 20
-5.319892494013352
 30
0.0
 40
0.4749999999999952
 50
78.97480744675518
 51
163.70579301950195
  0
ARC
  8
0
 62
0
 10
-0.00035517283422592527
 20
0.0016020821768480964
 30
0.0
 40
21.25000000001505
 50
9.994988632540315
 51
12.497779250999278
  0
ARC
  8
0
 62
0
 10
6.175326916491031e-11
 20
-1.8913315358304317e-11
 30
0.0
 40
18.43749999993542
 50
-17.41169594229271
 51
-16.338304057706296
  0
POLYLINE
  8
0
 62
0
 70
0
 66
1
 10
0.0
 20
0.0
 30
0.0
  0
VERTEX
  8
0
 10
20.74611323054081
 20
4.600139761526762
 30
0.0
  0
VERTEX
  8
0
 10
18.23973397262666
 20
4.8536635472643965
 30
0.0
  0
SEQEND
  8
0
  0
ARC
  8
0
 62
0
 10
18.04580545573858
 20
-5.659642787495218
 30
0.0
 40
0.4749999999999939
 50
162.54406293312866
 51
-112.72151844749692
  0
ARC
  8
0
 62
0
 10
18.14886792822654
 20
5.319891347781563
 30
0.0
 40
0.4749999999999992
 50
-163.7059370668709
 51
-78.97151844749698
  0
POLYLINE
  8
0
 62
0
 70
0
 66
1
 10
0.0
 20
0.0
 30
0.0
  0
VERTEX
  8
0
 10
19.805463443816627
 20
-7.701046537688445
 30
0.0
  0
VERTEX
  8
0
 10
17.862335522673877
 20
-6.097779505496835
 30
0.0
  0
SEQEND
  8
0
  0
ARC
  8
0
 62
0
 10
-2.673594678981317e-11
 20
-8.146816554699399e-12
 30
0.0
 40
18.43750000002795
 50
16.338304057709617
 51
17.41169594229058
  0
ARC
  8
0
 62
0
 10
0.0005947537468706798
 20
0.0015294061019011096
 30
0.0
 40
21.250000000017955
 50
-23.75501136745971
 51
-21.252220749001086
  0
ARC
  8
0
 62
0
 10
18.045805813963412
 20
5.65964164829213
 30
0.0
 40
0.4750000000000063
 50
112.72480744675643
 51
-162.54420698049887
  0
POLYLINE
  8
0
 62
0
 70
0
 66
1
 10
0.0
 20
0.0
 30
0.0
  0
VERTEX
  8
0
 10
16.942334030471404
 20
-8.318788059866856
 30
0.0
  0
VERTEX
  8
0
 10
19.4502150542496
 20
-8.558538944503438
 30
0.0
  0
SEQEND
  8
0
  0
POLYLINE
  8
0
 62
0
 70
0
 66
1
 10
0.0
 20
0.0
 30
0.0
  0
VERTEX
  8
0
 10
17.862310730459477
 20
6.097767833688403
 30
0.0
  0
VERTEX
  8
0
 10
19.8051798851041
 20
7.701578035689043
 30
0.0
  0
SEQEND
  8
0
  0
ARC
  8
0
 62
0
 10
16.762282651622325
 20
-8.758340674435972
 30
0.0
 40
0.4750000000000014
 50
67.72480744675569
 51
152.45579301950187
  0
ARC
  8
0
 62
0
 10
-0.0006608989935799059
 20
0.0015020078435576956
 30
0.0
 40
21.24999999999124
 50
21.244988632538927
 51
23.74777925100069
  0
ARC
  8
0
 62
0
 10
-1.0590994747872173e-10
 20
5.644640310720206e-11
 30
0.0
 40
18.437500000120007
 50
-28.661695942287373
 51
-27.588304057711735
  0
POLYLINE
  8
0
 62
0
 70
0
 66
1
 10
0.0
 20
0.0
 30
0.0
  0
VERTEX
  8
0
 10
19.450039734697686
 20
8.559115276632342
 30
0.0
  0
VERTEX
  8
0
 10
16.94235981442921
 20
8.318797337394898
 30
0.0
  0
SEQEND
  8
0
  0
ARC
  8
0
 62
0
 10
16.594918830100017
 20
-9.07145633571605
 30
0.0
 40
0.47499999999999626
 50
151.29406293312888
 51
-123.97151844749717
  0
ARC
  8
0
 62
0
 10
16.762283203857347
 20
8.758339615594561
 30
0.0
 40
0.4750000000000015
 50
-152.45593706687066
 51
-67.7215184474978
  0
POLYLINE
  8
0
 62
0
 70
0
 66
1
 10
0.0
 20
0.0
 30
0.0
  0
VERTEX
  8
0
 10
17.9225073683608
 20
-11.416927328797918
 30
0.0
  0
VERTEX
  8
0
 10
16.329497986951562
 20
-9.465381171214347
 30
0.0
  0
SEQEND
  8
0
  0
ARC
  8
0
 62
0
 10
3.61666252501891e-12
 20
1.7195134205394424e-12
 30
0.0
 40
18.437499999996
 50
27.588304057709152
 51
28.661695942292017
  0
ARC
  8
0
 62
0
 10
0.0008816980610877323
 20
0.0013839882845596563
 30
0.0
 40
21.25000000000375
 50
-35.00501136746032
 51
-32.50222074900005
  0
ARC
  8
0
 62
0
 10
16.594919403689147
 20
9.07145528828864
 30
0.0
 40
0.4750000000000057
 50
123.97480744675575
 51
-151.29420698049893
  0
POLYLINE
  8
0
 62
0
 70
0
 66
1
 10
0.0
 20
0.0
 30
0.0
  0
VERTEX
  8
0
 10
14.993876791377739
 20
-11.464230281621038
 30
0.0
  0
VERTEX
  8
0
 10
17.40679650721459
 20
-12.18863773674326
 30
0.0
  0
SEQEND
  8
0
  0
POLYLINE
  8
0
 62
0
 70
0
 66
1
 10
0.0
 20
0.0
 30
0.0
  0
VERTEX
  8
0
 10
16.329475948169474
 20
9.465364886955363
 30
0.0
  0
VERTEX
  8
0
 10
17.922125568033326
 20
11.417393294652943
 30
0.0
  0
SEQEND
  8
0
  0
ARC
  8
0
 62
0
 10
14.731532588166935
 20
-11.860210734474062
 30
0.0
 40
0.474999999999997
 50
56.47480744675524
 51
141.20579301950207
  0
ARC
  8
0
 62
0
 10
-0.0009412272118591858
 20
0.0013442121776554572
 30
0.0
 40
21.250000000007187
 50
32.494988632539915
 51
34.997779250999805
  0
ARC
  8
0
 62
0
 10
-7.813660829469882e-11
 20
6.404476948773663e-11
 30
0.0
 40
18.437500000101025
 50
-39.91169594228821
 51
-38.83830405771143
  0
POLYLINE
  8
0
 62
0
 70
0
 66
1
 10
0.0
 20
0.0
 30
0.0
  0
VERTEX
  8
0
 10
17.406512119558077
 20
12.189168791664084
 30
0.0
  0
VERTEX
  8
0
 10
14.993900269948096
 20
11.464244411084607
 30
0.0
  0
SEQEND
  8
0
  0
ARC
  8
0
 62
0
 10
14.506298780358403
 20
-12.134658904286654
 30
0.0
 40
0.474999999999999
 50
140.0440629331292
 51
-135.22151844749712
  0
ARC
  8
0
 62
0
 10
14.73153333636063
 20
11.8602098037137
 30
0.0
 40
0.4749999999999999
 50
-141.2059370668706
 51
-56.47151844749745
  0
POLYLINE
  8
0
 62
0
 70
0
 66
1
 10
0.0
 20
0.0
 30
0.0
  0
VERTEX
  8
0
 10
15.350799385796787
 20
-14.694062005348314
 30
0.0
  0
VERTEX
  8
0
 10
14.16912700127867
 20
-12.469233546769026
 30
0.0
  0
SEQEND
  8
0
  0
ARC
  8
0
 62
0
 10
3.228617373451925e-11
 20
2.630429207783891e-11
 30
0.0
 40
18.43749999995836
 50
38.83830405770793
 51
39.911695942293
  0
ARC
  8
0
 62
0
 10
0.001134759199267421
 20
0.0011853845800038343
 30
0.0
 40
21.25000000000504
 50
-46.2550113674603
 51
-43.75222074900016
  0
ARC
  8
0
 62
0
 10
14.506299547269121
 20
12.134657988886952
 30
0.0
 40
0.4749999999999985
 50
135.22480744675548
 51
-140.04420698049816
  0
POLYLINE
  8
0
 62
0
 70
0
 66
1
 10
0.0
 20
0.0
 30
0.0
  0
VERTEX
  8
0
 10
12.469213275854404
 20
-14.169108562866935
 30
0.0
  0
VERTEX
  8
0
 10
14.694444532251254
 20
-15.35033401622685
 30
0.0
  0
SEQEND
  8
0
  0
POLYLINE
  8
0
 62
0
 70
0
 66
1
 10
0.0
 20
0.0
 30
0.0
  0
VERTEX
  8
0
 10
14.169108562866928
 20
12.46921327585441
 30
0.0
  0
VERTEX
  8
0
 10
15.350334016226846
 20
14.694444532251255
 30
0.0
  0
SEQEND
  8
0
  0
ARC
  8
0
 62
0
 10
12.134657988886945
 20
-14.50629954726913
 30
0.0
 40
0.47500000000000037
 50
45.22480744675548
 51
129.95579301950173
  0
ARC
  8
0
 62
0
 10
-0.0011853845804541407
 20
0.0011347591989059325
 30
0.0
 40
21.250000000005613
 50
43.74498863253959
 51
46.24777925099966
  0
ARC
  8
0
 62
0
 10
-5.616662690499652e-11
 20
6.823341891504242e-11
 30
0.0
 40
18.437500000088374
 50
-51.16169594228836
 51
-50.08830405771088
  0
POLYLINE
  8
0
 62
0
 70
0
 66
1
 10
0.0
 20
0.0
 30
0.0
  0
VERTEX
  8
0
 10
14.694062005348313
 20
15.35079938579679
 30
0.0
  0
VERTEX
  8
0
 10
12.46923354676902
 20
14.169127001278671
 30
0.0
  0
SEQEND
  8
0
  0
ARC
  8
0
 62
0
 10
11.860209803713694
 20
-14.731533336360636
 30
0.0
 40
0.4750000000000001
 50
128.7940629331291
 51
-146.47151844749746
  0
ARC
  8
0
 62
0
 10
12.134658904286653
 20
14.506298780358406
 30
0.0
 40
0.474999999999999
 50
-129.9559370668707
 51
-45.22151844749755
  0
POLYLINE
  8
0
 62
0
 70
0
 66
1
 10
0.0
 20
0.0
 30
0.0
  0
VERTEX
  8
0
 10
12.189168791664077
 20
-17.406512119558084
 30
0.0
  0
VERTEX
  8
0
 10
11.464244411084602
 20
-14.993900269948101
 30
0.0
  0
SEQEND
  8
0
  0
ARC
  8
0
 62
0
 10
-4.789146856865045e-11
 20
-5.845102180046524e-11
 30
0.0
 40
18.437500000075563
 50
50.088304057711056
 51
51.161695942289306
  0
ARC
  8
0
 62
0
 10
0.0013442121756996883
 20
0.0009412272148932033
 30
0.0
 40
21.250000000010793
 50
-57.50501136746004
 51
-55.002220749000585
  0
ARC
  8
0
 62
0
 10
11.860210734474062
 20
14.731532588166937
 30
0.0
 40
0.4749999999999985
 50
146.47480744675536
 51
-128.7942069804981
  0
POLYLINE
  8
0
 62
0
 70
0
 66
1
 10
0.0
 20
0.0
 30
0.0
  0
VERTEX
  8
0
 10
9.465364886955367
 20
-16.32947594816947
 30
0.0
  0
VERTEX
  8
0
 10
11.417393294652936
 20
-17.92212556803333
 30
0.0
  0
SEQEND
  8
0
  0
POLYLINE
  8
0
 62
0
 70
0
 66
1
 10
0.0
 20
0.0
 30
0.0
  0
VERTEX
  8
0
 10
11.464230281621036
 20
14.99387679137774
 30
0.0
  0
VERTEX
  8
0
 10
12.188637736743262
 20
17.40679650721459
 30
0.0
  0
SEQEND
  8
0
  0
ARC
  8
0
 62
0
 10
9.071455288288643
 20
-16.594919403689147
 30
0.0
 40
0.4750000000000063
 50
33.974807446756216
 51
118.70579301950107
  0
ARC
  8
0
 62
0
 10
-0.00138398828455788
 20
0.0008816980610877323
 30
0.0
 40
21.25000000000375
 50
54.99498863253967
 51
57.49777925099997
  0
ARC
  8
0
 62
0
 10
3.837019590946511e-11
 20
-7.227285436783859e-11
 30
0.0
 40
18.437499999918177
 50
-62.41169594229298
 51
-61.33830405770556
  0
POLYLINE
  8
0
 62
0
 70
0
 66
1
 10
0.0
 20
0.0
 30
0.0
  0
VERTEX
  8
0
 10
11.41692732879792
 20
17.9225073683608
 30
0.0
  0
VERTEX
  8
0
 10
9.465381171214348
 20
16.329497986951562
 30
0.0
  0
SEQEND
  8
0
  0
ARC
  8
0
 62
0
 10
8.758339615594572
 20
-16.762283203857347
 30
0.0
 40
0.4750000000000047
 50
117.54406293312994
 51
-157.72151844749845
  0
ARC
  8
0
 62
0
 10
9.071456335716052
 20
16.594918830100017
 30
0.0
 40
0.47499999999999626
 50
-118.70593706687114
 51
-33.97151844749716
  0
POLYLINE
  8
0
 62
0
 70
0
 66
1
 10
0.0
 20
0.0
 30
0.0
  0
VERTEX
  8
0
 10
8.559115276632346
 20
-19.450039734697686
 30
0.0
  0
VERTEX
  8
0
 10
8.318797337394903
 20
-16.942359814429206
 30
0.0
  0
SEQEND
  8
0
  0
ARC
  8
0
 62
0
 10
-2.4004798149235285e-11
 20
-4.522604513113038e-11
 30
0.0
 40
18.437500000051198
 50
61.33830405771063
 51
62.41169594229029
  0
ARC
  8
0
 62
0
 10
0.0015020078298437767
 20
0.0006608990269025838
 30
0.0
 40
21.250000000027267
 50
-68.75501136745916
 51
-66.25222074900164
  0
ARC
  8
0
 62
0
 10
8.758340674435974
 20
16.762282651622325
 30
0.0
 40
0.4750000000000014
 50
157.72480744675568
 51
-117.54420698049815
  0
POLYLINE
  8
0
 62
0
 70
0
 66
1
 10
0.0
 20
0.0
 30
0.0
  0
VERTEX
  8
0
 10
6.097767833688404
 20
-17.862310730459477
 30
0.0
  0
VERTEX
  8
0
 10
7.701578035689047
 20
-19.805179885104096
 30
0.0
  0
SEQEND
  8
0
  0
POLYLINE
  8
0
 62
0
 70
0
 66
1
 10
0.0
 20
0.0
 30
0.0
  0
VERTEX
  8
0
 10
8.318788059866858
 20
16.942334030471404
 30
0.0
  0
VERTEX
  8
0
 10
8.558538944503425
 20
19.450215054249608
 30
0.0
  0
SEQEND
  8
0
  0
ARC
  8
0
 62
0
 10
5.659641648292131
 20
-18.04580581396341
 30
0.0
 40
0.4750000000000038
 50
22.724807446756113
 51
107.45579301950127
  0
ARC
  8
0
 62
0
 10
-0.0015294061002864012
 20
0.0005947537506134637
 30
0.0
 40
21.25000000001388
 50
66.24498863254026
 51
68.74777925099936
  0
ARC
  8
0
 62
0
 10
-8.145928376279699e-12
 20
2.673594678981317e-11
 30
0.0
 40
18.43750000002795
 50
-73.6616959422904
 51
-72.58830405770938
  0
POLYLINE
  8
0
 62
0
 70
0
 66
1
 10
0.0
 20
0.0
 30
0.0
  0
VERTEX
  8
0
 10
7.701046537688432
 20
19.80546344381663
 30
0.0
  0
VERTEX
  8
0
 10
6.097779505496824
 20
17.86233552267388
 30
0.0
  0
SEQEND
  8
0
  0
ARC
  8
0
 62
0
 10
5.319891347781567
 20
-18.148867928226544
 30
0.0
 40
0.475000000000003
 50
106.29406293312938
 51
-168.9715184474975
  0
ARC
  8
0
 62
0
 10
5.659642787495201
 20
18.045805455738595
 30
0.0
 40
0.47500000000000525
 50
-107.45593706687023
 51
-22.72151844749775
  0
POLYLINE
  8
0
 62
0
 70
0
 66
1
 10
0.0
 20
0.0
 30
0.0
  0
VERTEX
  8
0
 10
4.600139761526763
 20
-20.74611323054081
 30
0.0
  0
VERTEX
  8
0
 10
4.853663547264397
 20
-18.23973397262666
 30
0.0
  0
SEQEND
  8
0
  0
ARC
  8
0
 62
0
 10
-2.7122304402382724e-11
 20
-8.924949668198678e-11
 30
0.0
 40
18.437500000093276
 50
72.58830405771124
 51
73.66169594228846
  0
ARC
  8
0
 62
0
 10
0.0016020821768440996
 20
0.0003551728342525706
 30
0.0
 40
21.250000000015078
 50
-80.00501136745969
 51
-77.50222074900073
  0
ARC
  8
0
 62
0
 10
5.3198924940133425
 20
18.148867593172273
 30
0.0
 40
0.4749999999999974
 50
168.97480744675522
 51
-106.29420698049795
  0
POLYLINE
  8
0
 62
0
 70
0
 66
1
 10
0.0
 20
0.0
 30
0.0
  0
VERTEX
  8
0
 10
2.4958369822403927
 20
-18.70870692867719
 30
0.0
  0
VERTEX
  8
0
 10
3.6897954519083336
 20
-20.92713224606316
 30
0.0
  0
SEQEND
  8
0
  0
POLYLINE
  8
0
 62
0
 70
0
 66
1
 10
0.0
 20
0.0
 30
0.0
  0
VERTEX
  8
0
 10
4.853659478202088
 20
18.23970687414444
 30
0.0
  0
VERTEX
  8
0
 10
4.599540300310258
 20
20.746172744556084
 30
0.0
  0
SEQEND
  8
0
  0
ARC
  8
0
 62
0
 10
2.030331153715355
 20
-18.80320202701155
 30
0.0
 40
0.4750000000000029
 50
11.474807446755946
 51
96.20579301950147
  0
ARC
  8
0
 62
0
 10
-0.0016160496878461217
 20
0.0002849534149227395
 30
0.0
 40
21.249999999994063
 50
77.49498863253889
 51
79.99777925100034
  0
ARC
  8
0
 62
0
 10
1.3415268895755617e-11
 20
-1.369642177451169e-10
 30
0.0
 40
18.437499999862382
 50
-84.91169594229511
 51
-83.83830405770445
  0
POLYLINE
  8
0
 62
0
 70
0
 66
1
 10
0.0
 20
0.0
 30
0.0
  0
VERTEX
  8
0
 10
3.6892188469322327
 20
20.927306666158454
 30
0.0
  0
VERTEX
  8
0
 10
2.4958435930572005
 20
18.70873352157301
 30
0.0
  0
SEQEND
  8
0
  0
ARC
  8
0
 62
0
 10
1.6770026389027606
 20
-18.83800183611639
 30
0.0
 40
0.4750000000000035
 50
95.04406293312931
 51
179.77848155250132
  0
ARC
  8
0
 62
0
 10
2.030332340915157
 20
18.803201897917415
 30
0.0
 40
0.47500000000000026
 50
-96.20593706687059
 51
-11.471518447497179
  0
POLYLINE
  8
0
 62
0
 70
0
 66
1
 10
0.0
 20
0.0
 30
0.0
  0
VERTEX
  8
0
 10
0.46438345517380564
 20
-21.24492522948859
 30
0.0
  0
VERTEX
  8
0
 10
1.2020061889783964
 20
-18.83616538321672
 30
0.0
  0
SEQEND
  8
0
  0
ARC
  8
0
 62
0
 10
3.965383577053672e-12
 20
3.90301124753023e-11
 30
0.0
 40
18.437499999960767
 50
83.8383040577079
 51
84.91169594229284
  0
ARC
  8
0
 62
0
 10
0.0016405893996883497
 20
3.5797560061112677e-05
 30
0.0
 40
21.25000000001508
 50
-91.2550113674598
 51
-88.75222074900084
  0
ARC
  8
0
 62
0
 10
1.6770038284758622
 20
18.838001731118815
 30
0.0
 40
0.4749999999999977
 50
-179.7751925532463
 51
-95.04420698049785
  0
POLYLINE
  8
0
 62
0
 70
0
 66
1
 10
0.0
 20
0.0
 30
0.0
  0
VERTEX
  8
0
 10
-1.2020074847536115
 20
-18.836138011589558
 30
0.0
  0
VERTEX
  8
0
 10
-0.46378390182808793
 20
-21.244866650876983
 30
0.0
  0
SEQEND
  8
0
  0
POLYLINE
  8
0
 62
0
 70
0
 66
1
 10
0.0
 20
0.0
 30
0.0
  0
VERTEX
  8
0
 10
1.2020074847536049
 20
18.83613801158956
 30
0.0
  0
VERTEX
  8
0
 10
0.4637839018280854
 20
21.244866650876983
 30
0.0
  0
SEQEND
  8
0
  0
ARC
  8
0
 62
0
 10
-1.6770038284758677
 20
-18.838001731118812
 30
0.0
 40
0.47499999999999504
 50
0.22480744675371095
 51
84.95579301950224
  0
ARC
  8
0
 62
0
 10
-0.0016405893996909587
 20
-3.5797560061112677e-05
 30
0.0
 40
21.25000000001508
 50
88.74498863254021
 51
91.24777925099917
  0
ARC
  8
0
 62
0
 10
-3.975597628880223e-12
 20
-3.906919232576911e-11
 30
0.0
 40
18.43749999996073
 50
-96.1616959422921
 51
-95.08830405770716
  0
POLYLINE
  8
0
 62
0
 70
0
 66
1
 10
0.0
 20
0.0
 30
0.0
  0
VERTEX
  8
0
 10
-0.46438345517380825
 20
21.24492522948859
 30
0.0
  0
VERTEX
  8
0
 10
-1.202006188978399
 20
18.83616538321672
 30
0.0
  0
SEQEND
  8
0
  0
ARC
  8
0
 62
0
 10
-2.0303323409151655
 20
-18.80320189791742
 30
0.0
 40
0.47500000000000253
 50
83.79406293312928
 51
168.52848155250203
  0
ARC
  8
0
 62
0
 10
-1.6770026389027635
 20
18.83800183611639
 30
0.0
 40
0.4750000000000038
 50
-84.95593706687063
 51
-0.2215184474987004
  0
POLYLINE
  8
0
 62
0
 70
0
 66
1
 10
0.0
 20
0.0
 30
0.0
  0
VERTEX
  8
0
 10
-3.68921884693224
 20
-20.92730666615845
 30
0.0
  0
VERTEX
  8
0
 10
-2.495843593057207
 20
-18.708733521573006
 30
0.0
  0
SEQEND
  8
0
  0
ARC
  8
0
 62
0
 10
-1.3417489341804867e-11
 20
1.369642177451169e-10
 30
0.0
 40
18.437499999862382
 50
95.08830405770489
 51
96.16169594229555
  0
ARC
  8
0
 62
0
 10
0.0016160496894865872
 20
-0.00028495340663958757
 30
0.0
 40
21.250000000002505
 50
-102.50501136746061
 51
-100.00222074900017
  0
ARC
  8
0
 62
0
 10
-2.030331153715357
 20
18.80320202701155
 30
0.0
 40
0.4750000000000029
 50
-168.525192553244
 51
-83.79420698049854
  0
POLYLINE
  8
0
 62
0
 70
0
 66
1
 10
0.0
 20
0.0
 30
0.0
  0
VERTEX
  8
0
 10
-4.853659478202097
 20
-18.23970687414443
 30
0.0
  0
VERTEX
  8
0
 10
-4.599540300310265
 20
-20.74617274455608
 30
0.0
  0
SEQEND
  8
0
  0
POLYLINE
  8
0
 62
0
 70
0
 66
1
 10
0.0
 20
0.0
 30
0.0
  0
VERTEX
  8
0
 10
-2.495836982240395
 20
18.70870692867719
 30
0.0
  0
VERTEX
  8
0
 10
-3.689795451908332
 20
20.92713224606316
 30
0.0
  0
SEQEND
  8
0
  0
ARC
  8
0
 62
0
 10
-5.31989249401335
 20
-18.148867593172266
 30
0.0
 40
0.4749999999999945
 50
-11.025192553244828
 51
73.70579301950214
  0
ARC
  8
0
 62
0
 10
-0.0016020821779338945
 20
-0.00035517282874053535
 30
0.0
 40
21.25000000000946
 50
99.99498863254
 51
102.49777925099963
  0
ARC
  8
0
 62
0
 10
-2.0587975768648903e-11
 20
-6.727596257860569e-11
 30
0.0
 40
18.437499999929646
 50
-107.41169594229287
 51
-106.33830405770613
  0
POLYLINE
  8
0
 62
0
 70
0
 66
1
 10
0.0
 20
0.0
 30
0.0
  0
VERTEX
  8
0
 10
-4.60013976152676
 20
20.74611323054081
 30
0.0
  0
VERTEX
  8
0
 10
-4.853663547264396
 20
18.23973397262666
 30
0.0
  0
SEQEND
  8
0
  0
ARC
  8
0
 62
0
 10
-5.659642787495212
 20
-18.04580545573859
 30
0.0
 40
0.4750000000000028
 50
72.54406293312965
 51
157.27848155250214
  0
ARC
  8
0
 62
0
 10
-5.3198913477815655
 20
18.148867928226544
 30
0.0
 40
0.475000000000003
 50
-73.70593706687062
 51
11.0284815525025
  0
POLYLINE
  8
0
 62
0
 70
0
 66
1
 10
0.0
 20
0.0
 30
0.0
  0
VERTEX
  8
0
 10
-7.701046537688443
 20
-19.805463443816627
 30
0.0
  0
VERTEX
  8
0
 10
-6.097779505496834
 20
-17.862335522673877
 30
0.0
  0
SEQEND
  8
0
  0
ARC
  8
0
 62
0
 10
7.335465568303334e-12
 20
-2.4009239041333785e-11
 30
0.0
 40
18.4375000000251
 50
106.33830405770956
 51
107.41169594229076
  0
ARC
  8
0
 62
0
 10
0.0015294060953996436
 20
-0.0005947537625736743
 30
0.0
 40
21.250000000000963
 50
-113.75501136746072
 51
-111.25222074900009
  0
ARC
  8
0
 62
0
 10
-5.659641648292128
 20
18.045805813963412
 30
0.0
 40
0.4750000000000063
 50
-157.27519255324358
 51
-72.54420698049887
  0
POLYLINE
  8
0
 62
0
 70
0
 66
1
 10
0.0
 20
0.0
 30
0.0
  0
VERTEX
  8
0
 10
-8.318788059866856
 20
-16.942334030471404
 30
0.0
  0
VERTEX
  8
0
 10
-8.558538944503436
 20
-19.4502150542496
 30
0.0
  0
SEQEND
  8
0
  0
POLYLINE
  8
0
 62
0
 70
0
 66
1
 10
0.0
 20
0.0
 30
0.0
  0
VERTEX
  8
0
 10
-6.097767833688401
 20
17.862310730459477
 30
0.0
  0
VERTEX
  8
0
 10
-7.7015780356890415
 20
19.8051798851041
 30
0.0
  0
SEQEND
  8
0
  0
ARC
  8
0
 62
0
 10
-8.758340674435972
 20
-16.762282651622325
 30
0.0
 40
0.4750000000000014
 50
-22.27519255324432
 51
62.45579301950187
  0
ARC
  8
0
 62
0
 10
-0.0015020078435559192
 20
-0.0006608989935799059
 30
0.0
 40
21.24999999999124
 50
111.24498863253893
 51
113.7477792510007
  0
ARC
  8
0
 62
0
 10
5.644640310720206e-11
 20
1.0590994747872173e-10
 30
0.0
 40
18.437500000120007
 50
-118.66169594228737
 51
-117.58830405771172
  0
POLYLINE
  8
0
 62
0
 70
0
 66
1
 10
0.0
 20
0.0
 30
0.0
  0
VERTEX
  8
0
 10
-8.55911527663234
 20
19.450039734697686
 30
0.0
  0
VERTEX
  8
0
 10
-8.318797337394898
 20
16.94235981442921
 30
0.0
  0
SEQEND
  8
0
  0
ARC
  8
0
 62
0
 10
-9.07145633571605
 20
-16.594918830100017
 30
0.0
 40
0.47499999999999626
 50
61.29406293312886
 51
146.02848155250283
  0
ARC
  8
0
 62
0
 10
-8.758339615594561
 20
16.762283203857347
 30
0.0
 40
0.4750000000000015
 50
-62.45593706687065
 51
22.2784815525022
  0
POLYLINE
  8
0
 62
0
 70
0
 66
1
 10
0.0
 20
0.0
 30
0.0
  0
VERTEX
  8
0
 10
-11.416927328797918
 20
-17.9225073683608
 30
0.0
  0
VERTEX
  8
0
 10
-9.465381171214347
 20
-16.329497986951562
 30
0.0
  0
SEQEND
  8
0
  0
ARC
  8
0
 62
0
 10
-3.836486683894691e-11
 20
7.227285436783859e-11
 30
0.0
 40
18.437499999918177
 50
117.58830405770702
 51
118.66169594229444
  0
ARC
  8
0
 62
0
 10
0.0013839882845596563
 20
-0.0008816980610877323
 30
0.0
 40
21.25000000000375
 50
-125.00501136746033
 51
-122.50222074900003
  0
ARC
  8
0
 62
0
 10
-9.071455288288636
 20
16.594919403689147
 30
0.0
 40
0.47500000000000603
 50
-146.02519255324427
 51
-61.2942069804991
  0
POLYLINE
  8
0
 62
0
 70
0
 66
1
 10
0.0
 20
0.0
 30
0.0
  0
VERTEX
  8
0
 10
-11.464230281621038
 20
-14.99387679137774
 30
0.0
  0
VERTEX
  8
0
 10
-12.18863773674326
 20
-17.40679650721459
 30
0.0
  0
SEQEND
  8
0
  0
POLYLINE
  8
0
 62
0
 70
0
 66
1
 10
0.0
 20
0.0
 30
0.0
  0
VERTEX
  8
0
 10
-9.465364886955362
 20
16.329475948169474
 30
0.0
  0
VERTEX
  8
0
 10
-11.417393294652937
 20
17.92212556803333
 30
0.0
  0
SEQEND
  8
0
  0
ARC
  8
0
 62
0
 10
-11.860210734474062
 20
-14.731532588166937
 30
0.0
 40
0.474999999999997
 50
-33.525192553244764
 51
51.20579301950205
  0
ARC
  8
0
 62
0
 10
-0.0013442121617490699
 20
-0.0009412272358186868
 30
0.0
 40
21.250000000035943
 50
122.49498863254138
 51
124.99777925099788
  0
ARC
  8
0
 62
0
 10
4.788969221181105e-11
 20
5.845102180046524e-11
 30
0.0
 40
18.437500000075563
 50
-129.91169594228896
 51
-128.8383040577107
  0
POLYLINE
  8
0
 62
0
 70
0
 66
1
 10
0.0
 20
0.0
 30
0.0
  0
VERTEX
  8
0
 10
-12.18916879166408
 20
17.406512119558084
 30
0.0
  0
VERTEX
  8
0
 10
-11.464244411084604
 20
14.993900269948101
 30
0.0
  0
SEQEND
  8
0
  0
ARC
  8
0
 62
0
 10
-12.134658904286654
 20
-14.506298780358403
 30
0.0
 40
0.47499999999999704
 50
50.04406293312907
 51
134.7784815525029
  0
ARC
  8
0
 62
0
 10
-11.860209803713698
 20
14.731533336360636
 30
0.0
 40
0.4750000000000019
 50
-51.20593706687057
 51
33.528481552502434
  0
POLYLINE
  8
0
 62
0
 70
0
 66
1
 10
0.0
 20
0.0
 30
0.0
  0
VERTEX
  8
0
 10
-14.694062005348314
 20
-15.35079938579679
 30
0.0
  0
VERTEX
  8
0
 10
-12.469233546769024
 20
-14.169127001278671
 30
0.0
  0
SEQEND
  8
0
  0
ARC
  8
0
 62
0
 10
-1.4525269875775848e-11
 20
1.780886549340721e-11
 30
0.0
 40
18.437499999977017
 50
128.8383040577082
 51
129.91169594229217
  0
ARC
  8
0
 62
0
 10
0.001185384592532479
 20
-0.0011347591867849616
 30
0.0
 40
21.250000000022727
 50
-136.25501136745933
 51
-133.75222074900125
  0
ARC
  8
0
 62
0
 10
-12.134657988886946
 20
14.506299547269132
 30
0.0
 40
0.47500000000000187
 50
-134.77519255324438
 51
-50.04420698049844
  0
POLYLINE
  8
0
 62
0
 70
0
 66
1
 10
0.0
 20
0.0
 30
0.0
  0
VERTEX
  8
0
 10
-14.169108562866935
 20
-12.469213275854406
 30
0.0
  0
VERTEX
  8
0
 10
-15.35033401622685
 20
-14.694444532251255
 30
0.0
  0
SEQEND
  8
0
  0
POLYLINE
  8
0
 62
0
 70
0
 66
1
 10
0.0
 20
0.0
 30
0.0
  0
VERTEX
  8
0
 10
-12.469213275854406
 20
14.169108562866935
 30
0.0
  0
VERTEX
  8
0
 10
-14.694444532251255
 20
15.350334016226846
 30
0.0
  0
SEQEND
  8
0
  0
ARC
  8
0
 62
0
 10
-14.506299547269132
 20
-12.134657988886946
 30
0.0
 40
0.47500000000000187
 50
-44.775192553244366
 51
39.95579301950157
  0
ARC
  8
0
 62
0
 10
-0.0011347591989059325
 20
-0.0011853845804541407
 30
0.0
 40
21.250000000005613
 50
133.7449886325396
 51
136.24777925099968
  0
ARC
  8
0
 62
0
 10
-1.780886549340721e-11
 20
-1.4525269875775848e-11
 30
0.0
 40
18.437499999977017
 50
-141.1616959422918
 51
-140.0883040577078
  0
POLYLINE
  8
0
 62
0
 70
0
 66
1
 10
0.0
 20
0.0
 30
0.0
  0
VERTEX
  8
0
 10
-15.35079938579679
 20
14.694062005348313
 30
0.0
  0
VERTEX
  8
0
 10
-14.169127001278671
 20
12.46923354676902
 30
0.0
  0
SEQEND
  8
0
  0
ARC
  8
0
 62
0
 10
-14.731533336360636
 20
-11.860209803713698
 30
0.0
 40
0.4750000000000019
 50
38.79406293312943
 51
123.52848155250244
  0
ARC
  8
0
 62
0
 10
-14.506298780358406
 20
12.134658904286653
 30
0.0
 40
0.474999999999999
 50
-39.95593706687067
 51
44.77848155250246
  0
POLYLINE
  8
0
 62
0
 70
0
 66
1
 10
0.0
 20
0.0
 30
0.0
  0
VERTEX
  8
0
 10
-17.406512119558084
 20
-12.18916879166408
 30
0.0
  0
VERTEX
  8
0
 10
-14.993900269948101
 20
-11.464244411084604
 30
0.0
  0
SEQEND
  8
0
  0
ARC
  8
0
 62
0
 10
5.845102180046524e-11
 20
-4.789146856865045e-11
 30
0.0
 40
18.437500000075563
 50
140.08830405771107
 51
141.1616959422893
  0
ARC
  8
0
 62
0
 10
0.0009412272358186868
 20
-0.0013442121617490699
 30
0.0
 40
21.250000000035943
 50
-147.50501136745862
 51
-145.00222074900213
  0
ARC
  8
0
 62
0
 10
-14.731532588166937
 20
11.860210734474062
 30
0.0
 40
0.4749999999999985
 50
-123.52519255324464
 51
-38.794206980498124
  0
POLYLINE
  8
0
 62
0
 70
0
 66
1
 10
0.0
 20
0.0
 30
0.0
  0
VERTEX
  8
0
 10
-16.329475948169474
 20
-9.46536488695536
 30
0.0
  0
VERTEX
  8
0
 10
-17.92212556803333
 20
-11.417393294652937
 30
0.0
  0
SEQEND
  8
0
  0
POLYLINE
  8
0
 62
0
 70
0
 66
1
 10
0.0
 20
0.0
 30
0.0
  0
VERTEX
  8
0
 10
-14.99387679137774
 20
11.464230281621036
 30
0.0
  0
VERTEX
  8
0
 10
-17.40679650721459
 20
12.18863773674326
 30
0.0
  0
SEQEND
  8
0
  0
ARC
  8
0
 62
0
 10
-16.59491940368915
 20
-9.071455288288638
 30
0.0
 40
0.4750000000000057
 50
-56.02519255324367
 51
28.70579301950109
  0
ARC
  8
0
 62
0
 10
-0.0008816980497972082
 20
-0.0013839882921837798
 30
0.0
 40
21.250000000017373
 50
144.9949886325403
 51
147.497779250999
  0
ARC
  8
0
 62
0
 10
4.192202140984591e-12
 20
2.4593660441496468e-12
 30
0.0
 40
18.437500000004857
 50
-152.4116959422906
 51
-151.33830405770823
  0
POLYLINE
  8
0
 62
0
 70
0
 66
1
 10
0.0
 20
0.0
 30
0.0
  0
VERTEX
  8
0
 10
-17.922507368360804
 20
11.416927328797918
 30
0.0
  0
VERTEX
  8
0
 10
-16.329497986951566
 20
9.465381171214347
 30
0.0
  0
SEQEND
  8
0
  0
ARC
  8
0
 62
0
 10
-16.76228320385735
 20
-8.758339615594563
 30
0.0
 40
0.47500000000000325
 50
27.544062933129727
 51
112.27848155250213
  0
ARC
  8
0
 62
0
 10
-16.59491883010002
 20
9.07145633571605
 30
0.0
 40
0.47499999999999626
 50
-28.70593706687113
 51
56.02848155250284
  0
POLYLINE
  8
0
 62
0
 70
0
 66
1
 10
0.0
 20
0.0
 30
0.0
  0
VERTEX
  8
0
 10
-19.45003973469769
 20
-8.559115276632339
 30
0.0
  0
VERTEX
  8
0
 10
-16.942359814429214
 20
-8.318797337394898
 30
0.0
  0
SEQEND
  8
0
  0
ARC
  8
0
 62
0
 10
1.0590994747872173e-10
 20
-5.644640310720206e-11
 30
0.0
 40
18.43750000012001
 50
151.33830405771266
 51
152.41169594228828
  0
ARC
  8
0
 62
0
 10
0.0006608990121073077
 20
-0.0015020078359611055
 30
0.0
 40
21.25000000001126
 50
-158.75501136746007
 51
-156.25222074900068
  0
ARC
  8
0
 62
0
 10
-16.762282651622325
 20
8.758340674435972
 30
0.0
 40
0.4749999999999999
 50
-112.27519255324431
 51
-27.54420698049834
  0
POLYLINE
  8
0
 62
0
 70
0
 66
1
 10
0.0
 20
0.0
 30
0.0
  0
VERTEX
  8
0
 10
-17.862310730459477
 20
-6.097767833688405
 30
0.0
  0
VERTEX
  8
0
 10
-19.8051798851041
 20
-7.70157803568904
 30
0.0
  0
SEQEND
  8
0
  0
POLYLINE
  8
0
 62
0
 70
0
 66
1
 10
0.0
 20
0.0
 30
0.0
  0
VERTEX
  8
0
 10
-16.942334030471404
 20
8.318788059866856
 30
0.0
  0
VERTEX
  8
0
 10
-19.450215054249608
 20
8.558538944503427
 30
0.0
  0
SEQEND
  8
0
  0
ARC
  8
0
 62
0
 10
-18.045805813963412
 20
-5.659641648292132
 30
0.0
 40
0.4750000000000063
 50
-67.27519255324358
 51
17.45579301950114
  0
ARC
  8
0
 62
0
 10
-0.0005947537533010916
 20
-0.0015294060991690728
 30
0.0
 40
21.25000000001097
 50
156.2449886325401
 51
158.7477792509995
  0
ARC
  8
0
 62
0
 10
2.673594678981317e-11
 20
8.145040197859998e-12
 30
0.0
 40
18.43750000002795
 50
-163.66169594229038
 51
-162.58830405770942
  0
POLYLINE
  8
0
 62
0
 70
0
 66
1
 10
0.0
 20
0.0
 30
0.0
  0
VERTEX
  8
0
 10
-19.80546344381663
 20
7.701046537688434
 30
0.0
  0
VERTEX
  8
0
 10
-17.86233552267388
 20
6.097779505496826
 30
0.0
  0
SEQEND
  8
0
  0
ARC
  8
0
 62
0
 10
-18.14886792822654
 20
-5.319891347781565
 30
0.0
 40
0.4749999999999992
 50
16.294062933129116
 51
101.02848155250302
  0
ARC
  8
0
 62
0
 10
-18.045805455738595
 20
5.659642787495203
 30
0.0
 40
0.4750000000000054
 50
-17.45593706687032
 51
67.27848155250224
  0
POLYLINE
  8
0
 62
0
 70
0
 66
1
 10
0.0
 20
0.0
 30
0.0
  0
VERTEX
  8
0
 10
-20.74611323054081
 20
-4.600139761526764
 30
0.0
  0
VERTEX
  8
0
 10
-18.23973397262666
 20
-4.853663547264398
 30
0.0
  0
SEQEND
  8
0
  0
ARC
  8
0
 62
0
 10
-5.652367462971597e-12
 20
1.6657786261475849e-12
 30
0.0
 40
18.437499999994102
 50
162.58830405770837
 51
163.66169594229137
  0
ARC
  8
0
 62
0
 10
0.00035517282874053535
 20
-0.0016020821779374472
 30
0.0
 40
21.25000000000946
 50
-170.00501136745999
 51
-167.5022207490004
  0
ARC
  8
0
 62
0
 10
-18.148867593172273
 20
5.319892494013343
 30
0.0
 40
0.47499999999999803
 50
-101.02519255324478
 51
-16.29420698049795
  0
POLYLINE
  8
0
 62
0
 70
0
 66
1
 10
0.0
 20
0.0
 30
0.0
  0
VERTEX
  8
0
 10
-18.70870692867719
 20
-2.495836982240394
 30
0.0
  0
VERTEX
  8
0
 10
-20.92713224606316
 20
-3.6897954519083354
 30
0.0
  0
SEQEND
  8
0
  0
POLYLINE
  8
0
 62
0
 70
0
 66
1
 10
0.0
 20
0.0
 30
0.0
  0
VERTEX
  8
0
 10
-18.23970687414444
 20
4.853659478202088
 30
0.0
  0
VERTEX
  8
0
 10
-20.746172744556084
 20
4.599540300310264
 30
0.0
  0
SEQEND
  8
0
  0
ARC
  8
0
 62
0
 10
-18.80320202701155
 20
-2.0303311537153563
 30
0.0
 40
0.4750000000000029
 50
-78.52519255324405
 51
6.205793019501467
  0
ARC
  8
0
 62
0
 10
-0.00028495340704459693
 20
-0.0016160496894039866
 30
0.0
 40
21.250000000002096
 50
167.49498863253936
 51
169.99777925099988
  0
ARC
  8
0
 62
0
 10
-9.013767510168691e-11
 20
-8.804401652184879e-12
 30
0.0
 40
18.437499999909434
 50
-174.91169594229376
 51
-173.8383040577058
  0
POLYLINE
  8
0
 62
0
 70
0
 66
1
 10
0.0
 20
0.0
 30
0.0
  0
VERTEX
  8
0
 10
-20.927306666158454
 20
3.689218846932238
 30
0.0
  0
VERTEX
  8
0
 10
-18.70873352157301
 20
2.495843593057206
 30
0.0
  0
SEQEND
  8
0
  0
ARC
  8
0
 62
0
 10
-18.83800183611639
 20
-1.6770026389027621
 30
0.0
 40
0.47500000000000364
 50
5.04406293312935
 51
89.77848155250197
  0
ARC
  8
0
 62
0
 10
-18.803201897917415
 20
2.0303323409151623
 30
0.0
 40
0.47500000000000026
 50
-6.20593706687061
 51
78.52848155250283
  0
POLYLINE
  8
0
 62
0
 70
0
 66
1
 10
0.0
 20
0.0
 30
0.0
  0
VERTEX
  8
0
 10
-21.24492522948859
 20
-0.4643834551738069
 30
0.0
  0
VERTEX
  8
0
 10
-18.83616538321672
 20
-1.202006188978398
 30
0.0
  0
SEQEND
  8
0
  0
ARC
  8
0
 62
0
 10
-3.8555825199182436e-11
 20
3.9261927042844036e-12
 30
0.0
 40
18.437499999961247
 50
173.8383040577079
 51
174.91169594229282
  0
ARC
  8
0
 62
0
 10
3.5797560061112677e-05
 20
-0.0016405893996896265
 30
0.0
 40
21.25000000001508
 50
178.74498863254036
 51
-178.75222074900105
  0
ARC
  8
0
 62
0
 10
-18.838001731118815
 20
1.677003828475867
 30
0.0
 40
0.4749999999999974
 50
-89.77519255324492
 51
-5.044206980497811
  0
POLYLINE
  8
0
 62
0
 70
0
 66
1
 10
0.0
 20
0.0
 30
0.0
  0
VERTEX
  8
0
 10
-18.83613801158956
 20
1.2020074847536102
 30
0.0
  0
VERTEX
  8
0
 10
-21.244866650876983
 20
0.4637839018280867
 30
0.0
  0
SEQEND
  8
0
  0
CIRCLE
  8
0
 62
0
 10
0.0
 20
-6.0
 30
0.0
 40
0.8
  0
CIRCLE
  8
0
 62
0
 10
-6.0
 20
0.0
 30
0.0
 40
0.8
  0
CIRCLE
  8
0
 62
0
 10
0.0
 20
0.0
 30
0.0
 40
2.0
  0
CIRCLE
  8
0
 62
0
 10
0.0
 20
6.0
 30
0.0
 40
0.8
  0
CIRCLE
  8
0
 62
0
 10
6.0
 20
0.0
 30
0.0
 40
0.8
  0
ENDBLK
  0
ENDSEC
  0
SECTION
  2
ENTITIES
  0
INSERT
  2
POCKET
  8
0
 62
0
 10
0.0
 20
0.0
 30
0.0
  0
ENDSEC
  0
EOF
