999
FreeCAD v1.0 39109 (Git)
  0
SECTION
  2
HEADER
  9
$ACADVER
  1
AC1014
  9
$ACADMAINTVER
 70
     9
  9
$DWGCODEPAGE
  3
ANSI_1252
  9
$TEXTSTYLE
  7
STANDARD
  9
$DIMSTYLE
  2
STANDARD
  9
$DIMTXSTY
  7
STANDARD
  9
$CMLSTYLE
  2
STANDARD
  9
$LUNITS
 70
2
  9
$INSUNITS
 70
4
  9
$PEXTMAX
 10
50
 20
50
 30
50
  9
$PEXTMIN
 10
0
 20
0
 30
0
  9
$HANDSEED
  5
FFFF
  0
ENDSEC
  0
SECTION
  2
CLASSES
  0
CLASS
  1
ACDBDICTIONARYWDFLT
  2
AcDbDictionaryWithDefault
  3
ObjectDBX Classes
 90
        0
280
     0
281
     0
  0
CLASS
  1
XRECORD
  2
AcDbXrecord
  3
ObjectDBX Classes
 90
        0
280
     0
281
     0
  0
CLASS
  1
LWPOLYLINE
  2
AcDbPolyline
  3
ObjectDBX Classes
 90
        0
280
     0
281
     1
  0
ENDSEC
  0
SECTION
  2
TABLES
  0
TABLE
  2
VPORT
  5
20
330
0
100
AcDbSymbolTable
 70
     1
  0
VPORT
  5
21
330
20
100
AcDbSymbolTableRecord
100
AcDbViewportTableRecord
  2
*ACTIVE
 70
     0
  0
ENDTAB
  0
TABLE
  2
LTYPE
  5
22
330
0
100
AcDbSymbolTable
 70
     1
  0
LTYPE
  5
23
330
21
100
AcDbSymbolTableRecord
100
AcDbLinetypeTableRecord
  2
BYBLOCK
 70
     0
  3

 72
    65
 73
     0
 40
0.0
  0
LTYPE
  5
24
330
21
100
AcDbSymbolTableRecord
100
AcDbLinetypeTableRecord
  2
BYLAYER
 70
     0
  3

 72
    65
 73
     0
 40
0.0
  0
LTYPE
  5
25
330
21
100
AcDbSymbolTableRecord
100
AcDbLinetypeTableRecord
  2
CONTINUOUS
 70
     0
  3
Solid line
 72
    65
 73
     0
 40
0.0
  0
ENDTAB
  0
TABLE
  2
LAYER
  5
A8A
330
0
100
AcDbSymbolTable
 70
3
  0
LAYER
  5
A8B
330
A8A
100
AcDbSymbolTableRecord
100
AcDbLayerTableRecord
  2
0
 70
   0
 62
   7
  6
CONTINUOUS
  0
LAYER
  5
A8C
330
A8A
100
AcDbSymbolTableRecord
100
AcDbLayerTableRecord
  2
none
 70
    0
 62
    7
  6
CONTINUOUS
  0
LAYER
  5
A8D
330
A8A
100
AcDbSymbolTableRecord
100
AcDbLayerTableRecord
  2
Shape2DView001
 70
    0
 62
    7
  6
CONTINUOUS
  0
ENDTAB
  0
TABLE
  2
STYLE
  5
70
330
0
100
AcDbSymbolTable
 70
     2
  0
STYLE
  5
71
330
70
100
AcDbSymbolTableRecord
100
AcDbTextStyleTableRecord
  2
STANDARD
 70
     0
 40
0.0
 41
1.0
 50
0.0
 71
     0
 42
2.5
  3
arial.ttf
  4

  0
STYLE
  5
72
330
70
100
AcDbSymbolTableRecord
100
AcDbTextStyleTableRecord
  2
ANNOTATIVE
 70
     0
 40
0.0
 41
1.0
 50
0.0
 71
     0
 42
2.5
  3
arial.ttf
  4

  0
ENDTAB
  0
TABLE
  2
VIEW
  5
73
330
0
100
AcDbSymbolTable
 70
     0
  0
ENDTAB
  0
TABLE
  2
UCS
  5
74
330
0
100
AcDbSymbolTable
 70
     0
  0
ENDTAB
  0
TABLE
  2
APPID
  5
75
330
0
100
AcDbSymbolTable
 70
     2
  0
APPID
  5
76
330
75
100
AcDbSymbolTableRecord
100
AcDbRegAppTableRecord
  2
ACAD
 70
     0
  0
APPID
  5
77
330
75
100
AcDbSymbolTableRecord
100
AcDbRegAppTableRecord
  2
ACADANNOTATIVE
 70
     0
  0
ENDTAB
  0
TABLE
  2
DIMSTYLE
  5
78
330
0
100
AcDbSymbolTable
 70
     2
  0
DIMSTYLE
105
79
330
78
100
AcDbSymbolTableRecord
100
AcDbDimStyleTableRecord
  2
STANDARD
 70
     0
  3

  4

  5

  6

  7

 40
0.0
 41
2.5
 42
0.625
 43
3.75
 44
1.25
 45
0.0
 46
0.0
 47
0.0
 48
0.0
140
2.5
141
2.5
142
0.0
143
0.03937007874016
144
1.0
145
0.0
146
1.0
147
0.625
 71
     0
 72
     0
 73
     0
 74
     0
 75
     0
 76
     0
 77
     1
 78
     8
170
     0
171
     3
172
     1
173
     0
174
     0
175
     0
176
     0
177
     0
178
     0
270
     2
271
     2
272
     2
273
     2
274
     3
340
71
275
     0
280
     0
281
     0
282
     0
283
     0
284
     8
285
     0
286
     0
287
     3
288
     0
  0
ENDTAB
  0
TABLE
  2
BLOCK_RECORD
  5
A01
330
0
100
AcDbSymbolTable
  70
5
  0
BLOCK_RECORD
  5
A02
330
A01
100
AcDbSymbolTableRecord
100
AcDbBlockTableRecord
  2
*MODEL_SPACE
  0
BLOCK_RECORD
  5
A03
330
A01
100
AcDbSymbolTableRecord
100
AcDbBlockTableRecord
  2
*PAPER_SPACE
  0
ENDTAB
  0
ENDSEC
  0
SECTION
  2
BLOCKS
  0
BLOCK
  5
A04
330
A02
100
AcDbEntity
  8
0
100
AcDbBlockBegin
  2
*MODEL_SPACE
 70
   0
 10
0
 20
0
 30
0
  3
*MODEL_SPACE
  1
 
  0
ENDBLK
  5
A05
330
A02
100
AcDbEntity
  8
0
100
AcDbBlockEnd
  0
BLOCK
  5
A06
330
A03
100
AcDbEntity
 67
1
  8
0
100
AcDbBlockBegin
  2
*PAPER_SPACE
 70
   0
 10
0
 20
0
 30
0
  3
*PAPER_SPACE
  1
 
  0
ENDBLK
  5
A07
330
A03
100
AcDbEntity
 67
    1
  8
0
100
AcDbBlockEnd
  0
ENDSEC
  0
SECTION
  2
ENTITIES
  0
ARC
  5
A08
330
A02
100
AcDbEntity
  8
Shape2DView001
100
AcDbCircle
 10
120.838001731
 20
13.322996172
 30
0.000000000
 40
0.475000000
100
AcDbArc
 50
90.224807447
 51
174.955793020
  0
ARC
  5
A09
330
A02
100
AcDbEntity
  8
Shape2DView001
100
AcDbCircle
 10
102.000000000
 20
15.000000000
 30
0.000000000
 40
18.437500000
100
AcDbArc
 50
-6.161695942
 51
-5.088304058
  0
ARC
  5
A0A
330
A02
100
AcDbEntity
  8
Shape2DView001
100
AcDbCircle
 10
102.000568588
 20
14.974678560
 30
0.000000000
 40
21.250000000
100
AcDbArc
 50
-1.182860481
 51
1.320494482
  0
ARC
  5
A0B
330
A02
100
AcDbEntity
  8
Shape2DView001
100
AcDbCircle
 10
120.803200024
 20
12.969650425
 30
0.000000000
 40
0.475000000
100
AcDbArc
 50
173.791971858
 51
-101.435353421
  0
ARC
  5
A0C
330
A02
100
AcDbEntity
  8
Shape2DView001
100
AcDbCircle
 10
120.838003360
 20
16.676985370
 30
0.000000000
 40
0.475000000
100
AcDbArc
 50
-174.958028142
 51
-90.185353421
  0
ARC
  5
A0D
330
A02
100
AcDbEntity
  8
Shape2DView001
100
AcDbCircle
 10
101.995617695
 20
14.975054179
 30
0.000000000
 40
21.250000000
100
AcDbArc
 50
-12.432860481
 51
-9.929505518
  0
ARC
  5
A0E
330
A02
100
AcDbEntity
  8
Shape2DView001
100
AcDbCircle
 10
102.000000000
 20
15.000000000
 30
0.000000000
 40
18.437500000
100
AcDbArc
 50
5.088304058
 51
6.161695942
  0
ARC
  5
A0F
330
A02
100
AcDbEntity
  8
Shape2DView001
100
AcDbCircle
 10
120.803202027
 20
17.030331154
 30
0.000000000
 40
0.475000000
100
AcDbArc
 50
101.474807447
 51
-173.794206980
  0
ARC
  5
A10
330
A02
100
AcDbEntity
  8
Shape2DView001
100
AcDbCircle
 10
120.148867593
 20
9.680107506
 30
0.000000000
 40
0.475000000
100
AcDbArc
 50
78.974807447
 51
163.705793020
  0
ARC
  5
A11
330
A02
100
AcDbEntity
  8
Shape2DView001
100
AcDbCircle
 10
102.000000000
 20
15.000000000
 30
0.000000000
 40
18.437500000
100
AcDbArc
 50
-17.411695942
 51
-16.338304058
  0
ARC
  5
A12
330
A02
100
AcDbEntity
  8
Shape2DView001
100
AcDbCircle
 10
102.005497630
 20
14.975276031
 30
0.000000000
 40
21.250000000
100
AcDbArc
 50
10.067139519
 51
12.570494482
  0
ARC
  5
A13
330
A02
100
AcDbEntity
  8
Shape2DView001
100
AcDbCircle
 10
120.045800255
 20
9.340340675
 30
0.000000000
 40
0.475000000
100
AcDbArc
 50
162.541971858
 51
-112.685353421
  0
ARC
  5
A14
330
A02
100
AcDbEntity
  8
Shape2DView001
100
AcDbCircle
 10
120.148872792
 20
20.319874708
 30
0.000000000
 40
0.475000000
100
AcDbArc
 50
-163.708028142
 51
-78.935353421
  0
ARC
  5
A15
330
A02
100
AcDbEntity
  8
Shape2DView001
100
AcDbCircle
 10
101.990835211
 20
14.976388451
 30
0.000000000
 40
21.250000000
100
AcDbArc
 50
-23.682860481
 51
-21.179505518
  0
ARC
  5
A16
330
A02
100
AcDbEntity
  8
Shape2DView001
100
AcDbCircle
 10
102.000000000
 20
15.000000000
 30
0.000000000
 40
18.437500000
100
AcDbArc
 50
16.338304058
 51
17.411695942
  0
ARC
  5
A17
330
A02
100
AcDbEntity
  8
Shape2DView001
100
AcDbCircle
 10
120.045805814
 20
20.659641648
 30
0.000000000
 40
0.475000000
100
AcDbArc
 50
112.724807447
 51
-162.544206980
  0
ARC
  5
A18
330
A02
100
AcDbEntity
  8
Shape2DView001
100
AcDbCircle
 10
118.762282652
 20
6.241659326
 30
0.000000000
 40
0.475000000
100
AcDbArc
 50
67.724807447
 51
152.455793020
  0
ARC
  5
A19
330
A02
100
AcDbEntity
  8
Shape2DView001
100
AcDbCircle
 10
102.000000000
 20
15.000000000
 30
0.000000000
 40
18.437500000
100
AcDbArc
 50
-28.661695942
 51
-27.588304058
  0
ARC
  5
A1A
330
A02
100
AcDbEntity
  8
Shape2DView001
100
AcDbCircle
 10
102.010215402
 20
14.976823629
 30
0.000000000
 40
21.250000000
100
AcDbArc
 50
21.317139519
 51
23.820494482
  0
ARC
  5
A1B
330
A02
100
AcDbEntity
  8
Shape2DView001
100
AcDbCircle
 10
118.594910503
 20
5.928528459
 30
0.000000000
 40
0.475000000
100
AcDbArc
 50
151.291971858
 51
-123.935353421
  0
ARC
  5
A1C
330
A02
100
AcDbEntity
  8
Shape2DView001
100
AcDbCircle
 10
118.762291220
 20
23.758324245
 30
0.000000000
 40
0.475000000
100
AcDbArc
 50
-152.458028142
 51
-67.685353421
  0
ARC
  5
A1D
330
A02
100
AcDbEntity
  8
Shape2DView001
100
AcDbCircle
 10
101.986404925
 20
14.978630102
 30
0.000000000
 40
21.250000000
100
AcDbArc
 50
-34.932860481
 51
-32.429505518
  0
ARC
  5
A1E
330
A02
100
AcDbEntity
  8
Shape2DView001
100
AcDbCircle
 10
102.000000000
 20
15.000000000
 30
0.000000000
 40
18.437500000
100
AcDbArc
 50
27.588304058
 51
28.661695942
  0
ARC
  5
A1F
330
A02
100
AcDbEntity
  8
Shape2DView001
100
AcDbCircle
 10
118.594919404
 20
24.071455288
 30
0.000000000
 40
0.475000000
100
AcDbArc
 50
123.974807447
 51
-151.294206980
  0
ARC
  5
A20
330
A02
100
AcDbEntity
  8
Shape2DView001
100
AcDbCircle
 10
116.731532588
 20
3.139789266
 30
0.000000000
 40
0.475000000
100
AcDbArc
 50
56.474807447
 51
141.205793020
  0
ARC
  5
A21
330
A02
100
AcDbEntity
  8
Shape2DView001
100
AcDbCircle
 10
102.000000000
 20
15.000000000
 30
0.000000000
 40
18.437500000
100
AcDbArc
 50
-39.911695942
 51
-38.838304058
  0
ARC
  5
A22
330
A02
100
AcDbEntity
  8
Shape2DView001
100
AcDbCircle
 10
102.014540602
 20
14.979261883
 30
0.000000000
 40
21.250000000
100
AcDbArc
 50
32.567139519
 51
35.070494482
  0
ARC
  5
A23
330
A02
100
AcDbEntity
  8
Shape2DView001
100
AcDbCircle
 10
116.506287647
 20
2.865327807
 30
0.000000000
 40
0.475000000
100
AcDbArc
 50
140.041971858
 51
-135.185353421
  0
ARC
  5
A24
330
A02
100
AcDbEntity
  8
Shape2DView001
100
AcDbCircle
 10
116.731544197
 20
26.860196292
 30
0.000000000
 40
0.475000000
100
AcDbArc
 50
-141.208028142
 51
-56.435353421
  0
ARC
  5
A25
330
A02
100
AcDbEntity
  8
Shape2DView001
100
AcDbCircle
 10
101.982497091
 20
14.981692986
 30
0.000000000
 40
21.250000000
100
AcDbArc
 50
-46.182860481
 51
-43.679505518
  0
ARC
  5
A26
330
A02
100
AcDbEntity
  8
Shape2DView001
100
AcDbCircle
 10
102.000000000
 20
15.000000000
 30
0.000000000
 40
18.437500000
100
AcDbArc
 50
38.838304058
 51
39.911695942
  0
ARC
  5
A27
330
A02
100
AcDbEntity
  8
Shape2DView001
100
AcDbCircle
 10
116.506299547
 20
27.134657989
 30
0.000000000
 40
0.475000000
100
AcDbArc
 50
135.224807447
 51
-140.044206980
  0
ARC
  5
A28
330
A02
100
AcDbEntity
  8
Shape2DView001
100
AcDbCircle
 10
114.134657989
 20
0.493700453
 30
0.000000000
 40
0.475000000
100
AcDbArc
 50
45.224807447
 51
129.955793020
  0
ARC
  5
A29
330
A02
100
AcDbEntity
  8
Shape2DView001
100
AcDbCircle
 10
102.000000000
 20
15.000000000
 30
0.000000000
 40
18.437500000
100
AcDbArc
 50
-51.161695942
 51
-50.088304058
  0
ARC
  5
A2A
330
A02
100
AcDbEntity
  8
Shape2DView001
100
AcDbCircle
 10
102.018307014
 20
14.982497091
 30
0.000000000
 40
21.250000000
100
AcDbArc
 50
43.817139519
 51
46.320494482
  0
ARC
  5
A2B
330
A02
100
AcDbEntity
  8
Shape2DView001
100
AcDbCircle
 10
113.860196292
 20
0.268455803
 30
0.000000000
 40
0.475000000
100
AcDbArc
 50
128.791971858
 51
-146.435353421
  0
ARC
  5
A2C
330
A02
100
AcDbEntity
  8
Shape2DView001
100
AcDbCircle
 10
114.134672193
 20
29.506287647
 30
0.000000000
 40
0.475000000
100
AcDbArc
 50
-129.958028142
 51
-45.185353421
  0
ARC
  5
A2D
330
A02
100
AcDbEntity
  8
Shape2DView001
100
AcDbCircle
 10
101.979261883
 20
14.985459398
 30
0.000000000
 40
21.250000000
100
AcDbArc
 50
-57.432860481
 51
-54.929505518
  0
ARC
  5
A2E
330
A02
100
AcDbEntity
  8
Shape2DView001
100
AcDbCircle
 10
102.000000000
 20
15.000000000
 30
0.000000000
 40
18.437500000
100
AcDbArc
 50
50.088304058
 51
51.161695942
  0
ARC
  5
A2F
330
A02
100
AcDbEntity
  8
Shape2DView001
100
AcDbCircle
 10
113.860210734
 20
29.731532588
 30
0.000000000
 40
0.475000000
100
AcDbArc
 50
146.474807447
 51
-128.794206980
  0
ARC
  5
A30
330
A02
100
AcDbEntity
  8
Shape2DView001
100
AcDbCircle
 10
111.071455288
 20
-1.594919404
 30
0.000000000
 40
0.475000000
100
AcDbArc
 50
33.974807447
 51
118.705793020
  0
ARC
  5
A31
330
A02
100
AcDbEntity
  8
Shape2DView001
100
AcDbCircle
 10
102.000000000
 20
15.000000000
 30
0.000000000
 40
18.437500000
100
AcDbArc
 50
-62.411695942
 51
-61.338304058
  0
ARC
  5
A32
330
A02
100
AcDbEntity
  8
Shape2DView001
100
AcDbCircle
 10
102.021369898
 20
14.986404925
 30
0.000000000
 40
21.250000000
100
AcDbArc
 50
55.067139519
 51
57.570494482
  0
ARC
  5
A33
330
A02
100
AcDbEntity
  8
Shape2DView001
100
AcDbCircle
 10
110.758324245
 20
-1.762291220
 30
0.000000000
 40
0.475000000
100
AcDbArc
 50
117.541971858
 51
-157.685353421
  0
ARC
  5
A34
330
A02
100
AcDbEntity
  8
Shape2DView001
100
AcDbCircle
 10
111.071471541
 20
31.594910503
 30
0.000000000
 40
0.475000000
100
AcDbArc
 50
-118.708028142
 51
-33.935353421
  0
ARC
  5
A35
330
A02
100
AcDbEntity
  8
Shape2DView001
100
AcDbCircle
 10
101.976823629
 20
14.989784598
 30
0.000000000
 40
21.250000000
100
AcDbArc
 50
-68.682860481
 51
-66.179505518
  0
ARC
  5
A36
330
A02
100
AcDbEntity
  8
Shape2DView001
100
AcDbCircle
 10
102.000000000
 20
15.000000000
 30
0.000000000
 40
18.437500000
100
AcDbArc
 50
61.338304058
 51
62.411695942
  0
ARC
  5
A37
330
A02
100
AcDbEntity
  8
Shape2DView001
100
AcDbCircle
 10
110.758340674
 20
31.762282652
 30
0.000000000
 40
0.475000000
100
AcDbArc
 50
157.724807447
 51
-117.544206980
  0
ARC
  5
A38
330
A02
100
AcDbEntity
  8
Shape2DView001
100
AcDbCircle
 10
107.659641648
 20
-3.045805814
 30
0.000000000
 40
0.475000000
100
AcDbArc
 50
22.724807447
 51
107.455793020
  0
ARC
  5
A39
330
A02
100
AcDbEntity
  8
Shape2DView001
100
AcDbCircle
 10
102.000000000
 20
15.000000000
 30
0.000000000
 40
18.437500000
100
AcDbArc
 50
-73.661695942
 51
-72.588304058
  0
ARC
  5
A3A
330
A02
100
AcDbEntity
  8
Shape2DView001
100
AcDbCircle
 10
102.023611549
 20
14.990835211
 30
0.000000000
 40
21.250000000
100
AcDbArc
 50
66.317139519
 51
68.820494482
  0
ARC
  5
A3B
330
A02
100
AcDbEntity
  8
Shape2DView001
100
AcDbCircle
 10
107.319874708
 20
-3.148872792
 30
0.000000000
 40
0.475000000
100
AcDbArc
 50
106.291971858
 51
-168.935353421
  0
ARC
  5
A3C
330
A02
100
AcDbEntity
  8
Shape2DView001
100
AcDbCircle
 10
107.659659325
 20
33.045800255
 30
0.000000000
 40
0.475000000
100
AcDbArc
 50
-107.458028142
 51
-22.685353421
  0
ARC
  5
A3D
330
A02
100
AcDbEntity
  8
Shape2DView001
100
AcDbCircle
 10
101.975276031
 20
14.994502370
 30
0.000000000
 40
21.250000000
100
AcDbArc
 50
-79.932860481
 51
-77.429505518
  0
ARC
  5
A3E
330
A02
100
AcDbEntity
  8
Shape2DView001
100
AcDbCircle
 10
102.000000000
 20
15.000000000
 30
0.000000000
 40
18.437500000
100
AcDbArc
 50
72.588304058
 51
73.661695942
  0
ARC
  5
A3F
330
A02
100
AcDbEntity
  8
Shape2DView001
100
AcDbCircle
 10
107.319892494
 20
33.148867593
 30
0.000000000
 40
0.475000000
100
AcDbArc
 50
168.974807447
 51
-106.294206980
  0
ARC
  5
A40
330
A02
100
AcDbEntity
  8
Shape2DView001
100
AcDbCircle
 10
104.030331154
 20
-3.803202027
 30
0.000000000
 40
0.475000000
100
AcDbArc
 50
11.474807447
 51
96.205793020
  0
ARC
  5
A41
330
A02
100
AcDbEntity
  8
Shape2DView001
100
AcDbCircle
 10
102.000000000
 20
15.000000000
 30
0.000000000
 40
18.437500000
100
AcDbArc
 50
-84.911695942
 51
-83.838304058
  0
ARC
  5
A42
330
A02
100
AcDbEntity
  8
Shape2DView001
100
AcDbCircle
 10
102.024945821
 20
14.995617695
 30
0.000000000
 40
21.250000000
100
AcDbArc
 50
77.567139519
 51
80.070494482
  0
ARC
  5
A43
330
A02
100
AcDbEntity
  8
Shape2DView001
100
AcDbCircle
 10
103.676985370
 20
-3.838003360
 30
0.000000000
 40
0.475000000
100
AcDbArc
 50
95.041971858
 51
179.814646579
  0
ARC
  5
A44
330
A02
100
AcDbEntity
  8
Shape2DView001
100
AcDbCircle
 10
104.030349575
 20
33.803200024
 30
0.000000000
 40
0.475000000
100
AcDbArc
 50
-96.208028142
 51
-11.435353421
  0
ARC
  5
A45
330
A02
100
AcDbEntity
  8
Shape2DView001
100
AcDbCircle
 10
101.974678560
 20
14.999431412
 30
0.000000000
 40
21.250000000
100
AcDbArc
 50
-91.182860481
 51
-88.679505518
  0
ARC
  5
A46
330
A02
100
AcDbEntity
  8
Shape2DView001
100
AcDbCircle
 10
102.000000000
 20
15.000000000
 30
0.000000000
 40
18.437500000
100
AcDbArc
 50
83.838304058
 51
84.911695942
  0
ARC
  5
A47
330
A02
100
AcDbEntity
  8
Shape2DView001
100
AcDbCircle
 10
103.677003828
 20
33.838001731
 30
0.000000000
 40
0.475000000
100
AcDbArc
 50
-179.775192553
 51
-95.044206980
  0
ARC
  5
A48
330
A02
100
AcDbEntity
  8
Shape2DView001
100
AcDbCircle
 10
100.322996172
 20
-3.838001731
 30
0.000000000
 40
0.475000000
100
AcDbArc
 50
0.224807447
 51
84.955793020
  0
ARC
  5
A49
330
A02
100
AcDbEntity
  8
Shape2DView001
100
AcDbCircle
 10
102.000000000
 20
15.000000000
 30
0.000000000
 40
18.437500000
100
AcDbArc
 50
-96.161695942
 51
-95.088304058
  0
ARC
  5
A4A
330
A02
100
AcDbEntity
  8
Shape2DView001
100
AcDbCircle
 10
102.025321440
 20
15.000568588
 30
0.000000000
 40
21.250000000
100
AcDbArc
 50
88.817139519
 51
91.320494482
  0
ARC
  5
A4B
330
A02
100
AcDbEntity
  8
Shape2DView001
100
AcDbCircle
 10
99.969650425
 20
-3.803200024
 30
0.000000000
 40
0.475000000
100
AcDbArc
 50
83.791971858
 51
168.564646579
  0
ARC
  5
A4C
330
A02
100
AcDbEntity
  8
Shape2DView001
100
AcDbCircle
 10
100.323014630
 20
33.838003360
 30
0.000000000
 40
0.475000000
100
AcDbArc
 50
-84.958028142
 51
-0.185353421
  0
ARC
  5
A4D
330
A02
100
AcDbEntity
  8
Shape2DView001
100
AcDbCircle
 10
101.975054179
 20
15.004382305
 30
0.000000000
 40
21.250000000
100
AcDbArc
 50
-102.432860481
 51
-99.929505518
  0
ARC
  5
A4E
330
A02
100
AcDbEntity
  8
Shape2DView001
100
AcDbCircle
 10
102.000000000
 20
15.000000000
 30
0.000000000
 40
18.437500000
100
AcDbArc
 50
95.088304058
 51
96.161695942
  0
ARC
  5
A4F
330
A02
100
AcDbEntity
  8
Shape2DView001
100
AcDbCircle
 10
99.969668846
 20
33.803202027
 30
0.000000000
 40
0.475000000
100
AcDbArc
 50
-168.525192553
 51
-83.794206980
  0
ARC
  5
A50
330
A02
100
AcDbEntity
  8
Shape2DView001
100
AcDbCircle
 10
96.680107506
 20
-3.148867593
 30
0.000000000
 40
0.475000000
100
AcDbArc
 50
-11.025192553
 51
73.705793020
  0
ARC
  5
A51
330
A02
100
AcDbEntity
  8
Shape2DView001
100
AcDbCircle
 10
102.000000000
 20
15.000000000
 30
0.000000000
 40
18.437500000
100
AcDbArc
 50
-107.411695942
 51
-106.338304058
  0
ARC
  5
A52
330
A02
100
AcDbEntity
  8
Shape2DView001
100
AcDbCircle
 10
102.024723969
 20
15.005497630
 30
0.000000000
 40
21.250000000
100
AcDbArc
 50
100.067139519
 51
102.570494482
  0
ARC
  5
A53
330
A02
100
AcDbEntity
  8
Shape2DView001
100
AcDbCircle
 10
96.340340675
 20
-3.045800255
 30
0.000000000
 40
0.475000000
100
AcDbArc
 50
72.541971858
 51
157.314646579
  0
ARC
  5
A54
330
A02
100
AcDbEntity
  8
Shape2DView001
100
AcDbCircle
 10
96.680125292
 20
33.148872792
 30
0.000000000
 40
0.475000000
100
AcDbArc
 50
-73.708028142
 51
11.064646579
  0
ARC
  5
A55
330
A02
100
AcDbEntity
  8
Shape2DView001
100
AcDbCircle
 10
101.976388451
 20
15.009164789
 30
0.000000000
 40
21.250000000
100
AcDbArc
 50
-113.682860481
 51
-111.179505518
  0
ARC
  5
A56
330
A02
100
AcDbEntity
  8
Shape2DView001
100
AcDbCircle
 10
102.000000000
 20
15.000000000
 30
0.000000000
 40
18.437500000
100
AcDbArc
 50
106.338304058
 51
107.411695942
  0
ARC
  5
A57
330
A02
100
AcDbEntity
  8
Shape2DView001
100
AcDbCircle
 10
96.340358352
 20
33.045805814
 30
0.000000000
 40
0.475000000
100
AcDbArc
 50
-157.275192553
 51
-72.544206980
  0
ARC
  5
A58
330
A02
100
AcDbEntity
  8
Shape2DView001
100
AcDbCircle
 10
93.241659326
 20
-1.762282652
 30
0.000000000
 40
0.475000000
100
AcDbArc
 50
-22.275192553
 51
62.455793020
  0
ARC
  5
A59
330
A02
100
AcDbEntity
  8
Shape2DView001
100
AcDbCircle
 10
102.000000000
 20
15.000000000
 30
0.000000000
 40
18.437500000
100
AcDbArc
 50
-118.661695942
 51
-117.588304058
  0
ARC
  5
A5A
330
A02
100
AcDbEntity
  8
Shape2DView001
100
AcDbCircle
 10
102.023176371
 20
15.010215402
 30
0.000000000
 40
21.250000000
100
AcDbArc
 50
111.317139519
 51
113.820494482
  0
ARC
  5
A5B
330
A02
100
AcDbEntity
  8
Shape2DView001
100
AcDbCircle
 10
92.928528459
 20
-1.594910503
 30
0.000000000
 40
0.475000000
100
AcDbArc
 50
61.291971858
 51
146.064646579
  0
ARC
  5
A5C
330
A02
100
AcDbEntity
  8
Shape2DView001
100
AcDbCircle
 10
93.241675755
 20
31.762291220
 30
0.000000000
 40
0.475000000
100
AcDbArc
 50
-62.458028142
 51
22.314646579
  0
ARC
  5
A5D
330
A02
100
AcDbEntity
  8
Shape2DView001
100
AcDbCircle
 10
101.978630102
 20
15.013595075
 30
0.000000000
 40
21.250000000
100
AcDbArc
 50
-124.932860481
 51
-122.429505518
  0
ARC
  5
A5E
330
A02
100
AcDbEntity
  8
Shape2DView001
100
AcDbCircle
 10
102.000000000
 20
15.000000000
 30
0.000000000
 40
18.437500000
100
AcDbArc
 50
117.588304058
 51
118.661695942
  0
ARC
  5
A5F
330
A02
100
AcDbEntity
  8
Shape2DView001
100
AcDbCircle
 10
92.928544712
 20
31.594919404
 30
0.000000000
 40
0.475000000
100
AcDbArc
 50
-146.025192553
 51
-61.294206980
  0
ARC
  5
A60
330
A02
100
AcDbEntity
  8
Shape2DView001
100
AcDbCircle
 10
90.139789266
 20
0.268467412
 30
0.000000000
 40
0.475000000
100
AcDbArc
 50
-33.525192553
 51
51.205793020
  0
ARC
  5
A61
330
A02
100
AcDbEntity
  8
Shape2DView001
100
AcDbCircle
 10
102.000000000
 20
15.000000000
 30
0.000000000
 40
18.437500000
100
AcDbArc
 50
-129.911695942
 51
-128.838304058
  0
ARC
  5
A62
330
A02
100
AcDbEntity
  8
Shape2DView001
100
AcDbCircle
 10
102.020738117
 20
15.014540602
 30
0.000000000
 40
21.250000000
100
AcDbArc
 50
122.567139519
 51
125.070494482
  0
ARC
  5
A63
330
A02
100
AcDbEntity
  8
Shape2DView001
100
AcDbCircle
 10
89.865327807
 20
0.493712353
 30
0.000000000
 40
0.475000000
100
AcDbArc
 50
50.041971858
 51
134.814646579
  0
ARC
  5
A64
330
A02
100
AcDbEntity
  8
Shape2DView001
100
AcDbCircle
 10
90.139803708
 20
29.731544197
 30
0.000000000
 40
0.475000000
100
AcDbArc
 50
-51.208028142
 51
33.564646579
  0
ARC
  5
A65
330
A02
100
AcDbEntity
  8
Shape2DView001
100
AcDbCircle
 10
101.981692986
 20
15.017502909
 30
0.000000000
 40
21.250000000
100
AcDbArc
 50
-136.182860481
 51
-133.679505518
  0
ARC
  5
A66
330
A02
100
AcDbEntity
  8
Shape2DView001
100
AcDbCircle
 10
102.000000000
 20
15.000000000
 30
0.000000000
 40
18.437500000
100
AcDbArc
 50
128.838304058
 51
129.911695942
  0
ARC
  5
A67
330
A02
100
AcDbEntity
  8
Shape2DView001
100
AcDbCircle
 10
89.865342011
 20
29.506299547
 30
0.000000000
 40
0.475000000
100
AcDbArc
 50
-134.775192553
 51
-50.044206980
  0
ARC
  5
A68
330
A02
100
AcDbEntity
  8
Shape2DView001
100
AcDbCircle
 10
87.493700453
 20
2.865342011
 30
0.000000000
 40
0.475000000
100
AcDbArc
 50
-44.775192553
 51
39.955793020
  0
ARC
  5
A69
330
A02
100
AcDbEntity
  8
Shape2DView001
100
AcDbCircle
 10
102.000000000
 20
15.000000000
 30
0.000000000
 40
18.437500000
100
AcDbArc
 50
-141.161695942
 51
-140.088304058
  0
ARC
  5
A6A
330
A02
100
AcDbEntity
  8
Shape2DView001
100
AcDbCircle
 10
102.017502909
 20
15.018307014
 30
0.000000000
 40
21.250000000
100
AcDbArc
 50
133.817139519
 51
136.320494482
  0
ARC
  5
A6B
330
A02
100
AcDbEntity
  8
Shape2DView001
100
AcDbCircle
 10
87.268455803
 20
3.139803708
 30
0.000000000
 40
0.475000000
100
AcDbArc
 50
38.791971858
 51
123.564646579
  0
ARC
  5
A6C
330
A02
100
AcDbEntity
  8
Shape2DView001
100
AcDbCircle
 10
87.493712353
 20
27.134672193
 30
0.000000000
 40
0.475000000
100
AcDbArc
 50
-39.958028142
 51
44.814646579
  0
ARC
  5
A6D
330
A02
100
AcDbEntity
  8
Shape2DView001
100
AcDbCircle
 10
101.985459398
 20
15.020738117
 30
0.000000000
 40
21.250000000
100
AcDbArc
 50
-147.432860481
 51
-144.929505518
  0
ARC
  5
A6E
330
A02
100
AcDbEntity
  8
Shape2DView001
100
AcDbCircle
 10
102.000000000
 20
15.000000000
 30
0.000000000
 40
18.437500000
100
AcDbArc
 50
140.088304058
 51
141.161695942
  0
ARC
  5
A6F
330
A02
100
AcDbEntity
  8
Shape2DView001
100
AcDbCircle
 10
87.268467412
 20
26.860210734
 30
0.000000000
 40
0.475000000
100
AcDbArc
 50
-123.525192553
 51
-38.794206980
  0
ARC
  5
A70
330
A02
100
AcDbEntity
  8
Shape2DView001
100
AcDbCircle
 10
85.405080596
 20
5.928544712
 30
0.000000000
 40
0.475000000
100
AcDbArc
 50
-56.025192553
 51
28.705793020
  0
ARC
  5
A71
330
A02
100
AcDbEntity
  8
Shape2DView001
100
AcDbCircle
 10
102.000000000
 20
15.000000000
 30
0.000000000
 40
18.437500000
100
AcDbArc
 50
-152.411695942
 51
-151.338304058
  0
ARC
  5
A72
330
A02
100
AcDbEntity
  8
Shape2DView001
100
AcDbCircle
 10
102.013595075
 20
15.021369898
 30
0.000000000
 40
21.250000000
100
AcDbArc
 50
145.067139519
 51
147.570494482
  0
ARC
  5
A73
330
A02
100
AcDbEntity
  8
Shape2DView001
100
AcDbCircle
 10
85.237708780
 20
6.241675755
 30
0.000000000
 40
0.475000000
100
AcDbArc
 50
27.541971858
 51
112.314646579
  0
ARC
  5
A74
330
A02
100
AcDbEntity
  8
Shape2DView001
100
AcDbCircle
 10
85.405089497
 20
24.071471541
 30
0.000000000
 40
0.475000000
100
AcDbArc
 50
-28.708028142
 51
56.064646579
  0
ARC
  5
A75
330
A02
100
AcDbEntity
  8
Shape2DView001
100
AcDbCircle
 10
101.989784598
 20
15.023176371
 30
0.000000000
 40
21.250000000
100
AcDbArc
 50
-158.682860481
 51
-156.179505518
  0
ARC
  5
A76
330
A02
100
AcDbEntity
  8
Shape2DView001
100
AcDbCircle
 10
102.000000000
 20
15.000000000
 30
0.000000000
 40
18.437500000
100
AcDbArc
 50
151.338304058
 51
152.411695942
  0
ARC
  5
A77
330
A02
100
AcDbEntity
  8
Shape2DView001
100
AcDbCircle
 10
85.237717348
 20
23.758340674
 30
0.000000000
 40
0.475000000
100
AcDbArc
 50
-112.275192553
 51
-27.544206980
  0
ARC
  5
A78
330
A02
100
AcDbEntity
  8
Shape2DView001
100
AcDbCircle
 10
83.954194186
 20
9.340358352
 30
0.000000000
 40
0.475000000
100
AcDbArc
 50
-67.275192553
 51
17.455793020
  0
ARC
  5
A79
330
A02
100
AcDbEntity
  8
Shape2DView001
100
AcDbCircle
 10
102.000000000
 20
15.000000000
 30
0.000000000
 40
18.437500000
100
AcDbArc
 50
-163.661695942
 51
-162.588304058
  0
ARC
  5
A7A
330
A02
100
AcDbEntity
  8
Shape2DView001
100
AcDbCircle
 10
102.009164789
 20
15.023611549
 30
0.000000000
 40
21.250000000
100
AcDbArc
 50
156.317139519
 51
158.820494482
  0
ARC
  5
A7B
330
A02
100
AcDbEntity
  8
Shape2DView001
100
AcDbCircle
 10
83.851127208
 20
9.680125292
 30
0.000000000
 40
0.475000000
100
AcDbArc
 50
16.291971858
 51
101.064646579
  0
ARC
  5
A7C
330
A02
100
AcDbEntity
  8
Shape2DView001
100
AcDbCircle
 10
83.954199745
 20
20.659659325
 30
0.000000000
 40
0.475000000
100
AcDbArc
 50
-17.458028142
 51
67.314646579
  0
ARC
  5
A7D
330
A02
100
AcDbEntity
  8
Shape2DView001
100
AcDbCircle
 10
101.994502370
 20
15.024723969
 30
0.000000000
 40
21.250000000
100
AcDbArc
 50
-169.932860481
 51
-167.429505518
  0
ARC
  5
A7E
330
A02
100
AcDbEntity
  8
Shape2DView001
100
AcDbCircle
 10
102.000000000
 20
15.000000000
 30
0.000000000
 40
18.437500000
100
AcDbArc
 50
162.588304058
 51
163.661695942
  0
ARC
  5
A7F
330
A02
100
AcDbEntity
  8
Shape2DView001
100
AcDbCircle
 10
83.851132407
 20
20.319892494
 30
0.000000000
 40
0.475000000
100
AcDbArc
 50
-101.025192553
 51
-16.294206980
  0
ARC
  5
A80
330
A02
100
AcDbEntity
  8
Shape2DView001
100
AcDbCircle
 10
83.196797973
 20
12.969668846
 30
0.000000000
 40
0.475000000
100
AcDbArc
 50
-78.525192553
 51
6.205793020
  0
ARC
  5
A81
330
A02
100
AcDbEntity
  8
Shape2DView001
100
AcDbCircle
 10
102.000000000
 20
15.000000000
 30
0.000000000
 40
18.437500000
100
AcDbArc
 50
-174.911695942
 51
-173.838304058
  0
ARC
  5
A82
330
A02
100
AcDbEntity
  8
Shape2DView001
100
AcDbCircle
 10
102.004382305
 20
15.024945821
 30
0.000000000
 40
21.250000000
100
AcDbArc
 50
167.567139519
 51
170.070494482
  0
ARC
  5
A83
330
A02
100
AcDbEntity
  8
Shape2DView001
100
AcDbCircle
 10
83.161996640
 20
13.323014630
 30
0.000000000
 40
0.475000000
100
AcDbArc
 50
5.041971858
 51
89.814646579
  0
ARC
  5
A84
330
A02
100
AcDbEntity
  8
Shape2DView001
100
AcDbCircle
 10
83.196799976
 20
17.030349575
 30
0.000000000
 40
0.475000000
100
AcDbArc
 50
-6.208028142
 51
78.564646579
  0
ARC
  5
A85
330
A02
100
AcDbEntity
  8
Shape2DView001
100
AcDbCircle
 10
101.999431412
 20
15.025321440
 30
0.000000000
 40
21.250000000
100
AcDbArc
 50
178.817139519
 51
-178.679505518
  0
ARC
  5
A86
330
A02
100
AcDbEntity
  8
Shape2DView001
100
AcDbCircle
 10
102.000000000
 20
15.000000000
 30
0.000000000
 40
18.437500000
100
AcDbArc
 50
173.838304058
 51
174.911695942
  0
ARC
  5
A87
330
A02
100
AcDbEntity
  8
Shape2DView001
100
AcDbCircle
 10
83.161998269
 20
16.677003828
 30
0.000000000
 40
0.475000000
100
AcDbArc
 50
-89.775192553
 51
-5.044206980
  0
CIRCLE
  5
A88
330
A02
100
AcDbEntity
  8
Shape2DView001
100
AcDbCircle
 10
102.000000000
 20
15.000000000
 30
0.000000000
 40
2.500000000
  0
CIRCLE
  5
A89
330
A02
100
AcDbEntity
  8
Shape2DView001
100
AcDbCircle
 10
117.000000000
 20
15.000000000
 30
0.000000000
 40
2.500000000
  0
ENDSEC
  0
SECTION
  2
OBJECTS
  0
DICTIONARY
  5
F000
330
0
100
AcDbDictionary
  3
ACAD_GROUP
350
F001
  0
DICTIONARY
  5
F001
330
F000
100
AcDbDictionary
  0
ENDSEC
  0
EOF